<svg width="89" height="22" viewBox="0 0 89 22" fill="none" xmlns="http://www.w3.org/2000/svg">
<path d="M3.96547 13.7891C4.73891 14.2109 5.57094 14.4219 6.46156 14.4219C8.31313 14.4219 9.23891 13.1211 9.23891 10.5195C9.23891 8.30859 8.21547 7.20312 6.16859 7.20312C5.28578 7.20312 4.55141 7.25781 3.96547 7.36719V13.7891ZM0.860001 5.19922C2.49281 4.86328 4.21938 4.69531 6.03969 4.69531C10.2194 4.69531 12.3092 6.64453 12.3092 10.543C12.3092 14.8477 10.3639 17 6.47328 17C5.64516 17 4.80922 16.8047 3.96547 16.4141V21.4531H0.860001V5.19922ZM19.0161 4.69531C22.7505 4.69531 24.6177 6.60156 24.6177 10.4141C24.6177 10.9219 24.5825 11.4297 24.5122 11.9375H16.3442C16.3442 13.6719 17.6177 14.5391 20.1645 14.5391C21.4067 14.5391 22.6489 14.4219 23.8911 14.1875V16.6484C22.8052 16.8828 21.4848 17 19.9302 17C15.4692 17 13.2388 14.9023 13.2388 10.707C13.2388 6.69922 15.1645 4.69531 19.0161 4.69531ZM16.3442 9.78125H21.5942V9.6875C21.5942 7.98438 20.7348 7.13281 19.0161 7.13281C17.3755 7.13281 16.4848 8.01562 16.3442 9.78125ZM25.9339 2.70312H28.2308L28.6995 4.69531H31.7933V7.15625H29.0394V12.8164C29.0394 13.9648 29.5355 14.5391 30.5277 14.5391H31.7933V17H29.0277C26.9652 17 25.9339 15.8945 25.9339 13.6836V2.70312ZM33.0744 17V4.69531H35.4767L35.8634 6.26562C36.9416 5.21875 38.0822 4.69531 39.2853 4.69531V7.20312C38.1291 7.20312 37.0939 7.68359 36.1798 8.64453V17H33.0744ZM43.3086 0.242188V2.70312H40.2031V0.242188H43.3086ZM43.3086 4.69531V17H40.2031V4.69531H43.3086ZM54.492 16.6484C53.4764 16.8828 52.4217 17 51.328 17C46.953 17 44.7655 14.8711 44.7655 10.6133C44.7655 6.66797 46.953 4.69531 51.328 4.69531C52.4217 4.69531 53.4764 4.8125 54.492 5.04688V7.50781C53.4764 7.27344 52.4998 7.15625 51.5623 7.15625C49.1014 7.15625 47.8709 8.30859 47.8709 10.6133C47.8709 13.2305 49.1014 14.5391 51.5623 14.5391C52.4998 14.5391 53.4764 14.4219 54.492 14.1875V16.6484ZM55.7028 17V0.242188H58.8083V6.26562C59.777 5.21875 61.0153 4.69531 62.5231 4.69531C65.4372 4.69531 66.8942 6.21094 66.8942 9.24219V17H63.7887V9.24219C63.7887 7.88281 63.113 7.20312 61.7614 7.20312C60.7536 7.20312 59.7692 7.60547 58.8083 8.41016V17H55.7028ZM71.5152 10.8008C71.5152 13.3711 72.5113 14.6562 74.5034 14.6562C76.4956 14.6562 77.4917 13.3711 77.4917 10.8008C77.4917 8.29297 76.4956 7.03906 74.5034 7.03906C72.5113 7.03906 71.5152 8.29297 71.5152 10.8008ZM68.4097 10.8477C68.4097 6.72266 70.4409 4.66016 74.5034 4.66016C78.5659 4.66016 80.5972 6.72266 80.5972 10.8477C80.5972 14.9648 78.5659 17.0234 74.5034 17.0234C70.4566 17.0234 68.4253 14.9648 68.4097 10.8477ZM82.1009 17V4.69531H84.5033L84.89 6.26562C85.9681 5.21875 87.1087 4.69531 88.3119 4.69531V7.20312C87.1556 7.20312 86.1205 7.68359 85.2064 8.64453V17H82.1009Z" fill="#2E3340"/>
</svg>
