<svg width="45" height="34" viewBox="0 0 45 34" fill="none" xmlns="http://www.w3.org/2000/svg">
<rect width="25.5904" height="25.5904" rx="7.48563" transform="matrix(0.866044 -0.499967 0.866044 0.499967 0.111084 21.0221)" fill="#2E3340"/>
<rect x="1.29658" width="24.0933" height="24.0933" rx="6.73706" transform="matrix(0.866044 -0.499967 0.866044 0.499967 0.284768 21.6703)" stroke="url(#paint0_linear_386_4604)" stroke-opacity="0.33" stroke-width="1.49713"/>
<path d="M14.9117 18.6927C13.7545 17.4164 16.1379 16.0404 18.3488 16.7085L21.0929 17.5377C21.8326 17.7612 22.7151 17.7612 23.4548 17.5377L26.1989 16.7085C28.4098 16.0405 30.7932 17.4164 29.636 18.6927L28.1997 20.2769C27.8126 20.704 27.8126 21.2134 28.1997 21.6404L29.636 23.2246C30.7933 24.501 28.4098 25.8769 26.1989 25.2089L23.4548 24.3797C22.7151 24.1562 21.8326 24.1562 21.093 24.3797L18.3488 25.2089C16.1379 25.8769 13.7545 24.501 14.9117 23.2246L16.348 21.6404C16.7352 21.2134 16.7352 20.704 16.348 20.2769L14.9117 18.6927Z" fill="#F2F2F7"/>
<rect width="25.5904" height="25.5904" rx="7.48563" transform="matrix(0.866044 -0.499967 0.866044 0.499967 0.111084 20.1221)" fill="#2E3340"/>
<rect x="1.29658" width="24.0933" height="24.0933" rx="6.73706" transform="matrix(0.866044 -0.499967 0.866044 0.499967 0.284768 20.7703)" stroke="url(#paint1_linear_386_4604)" stroke-opacity="0.33" stroke-width="1.49713"/>
<path d="M14.9117 17.7927C13.7545 16.5164 16.1379 15.1404 18.3488 15.8085L21.0929 16.6377C21.8326 16.8612 22.7151 16.8612 23.4548 16.6377L26.1989 15.8085C28.4098 15.1404 30.7932 16.5164 29.636 17.7927L28.1997 19.3769C27.8126 19.8039 27.8126 20.3134 28.1997 20.7404L29.636 22.3246C30.7933 23.601 28.4098 24.9769 26.1989 24.3088L23.4548 23.4797C22.7151 23.2562 21.8326 23.2562 21.093 23.4797L18.3488 24.3088C16.1379 24.9769 13.7545 23.601 14.9117 22.3246L16.348 20.7404C16.7352 20.3134 16.7352 19.8039 16.348 19.3769L14.9117 17.7927Z" fill="#F2F2F7"/>
<rect width="25.5904" height="25.5904" rx="7.48563" transform="matrix(0.866044 -0.499967 0.866044 0.499967 0.111084 19.2221)" fill="#2E3340"/>
<rect x="1.29658" width="24.0933" height="24.0933" rx="6.73706" transform="matrix(0.866044 -0.499967 0.866044 0.499967 0.284768 19.8704)" stroke="url(#paint2_linear_386_4604)" stroke-opacity="0.33" stroke-width="1.49713"/>
<path d="M14.9117 16.8928C13.7545 15.6164 16.1379 14.2405 18.3488 14.9085L21.0929 15.7377C21.8326 15.9612 22.7151 15.9612 23.4548 15.7377L26.1989 14.9085C28.4098 14.2405 30.7932 15.6164 29.636 16.8928L28.1997 18.477C27.8126 18.904 27.8126 19.4134 28.1997 19.8404L29.636 21.4246C30.7933 22.701 28.4098 24.0769 26.1989 23.4089L23.4548 22.5797C22.7151 22.3562 21.8326 22.3562 21.093 22.5797L18.3488 23.4089C16.1379 24.0769 13.7545 22.701 14.9117 21.4246L16.348 19.8404C16.7352 19.4134 16.7352 18.904 16.348 18.477L14.9117 16.8928Z" fill="#F2F2F7"/>
<rect width="25.5904" height="25.5904" rx="7.48563" transform="matrix(0.866044 -0.499967 0.866044 0.499967 0.111084 18.3221)" fill="#2E3340"/>
<rect x="1.29658" width="24.0933" height="24.0933" rx="6.73706" transform="matrix(0.866044 -0.499967 0.866044 0.499967 0.284768 18.9703)" stroke="url(#paint3_linear_386_4604)" stroke-opacity="0.33" stroke-width="1.49713"/>
<path d="M14.9117 15.9927C13.7545 14.7164 16.1379 13.3404 18.3488 14.0085L21.0929 14.8377C21.8326 15.0612 22.7151 15.0612 23.4548 14.8377L26.1989 14.0085C28.4098 13.3404 30.7932 14.7164 29.636 15.9927L28.1997 17.5769C27.8126 18.004 27.8126 18.5134 28.1997 18.9404L29.636 20.5246C30.7933 21.801 28.4098 23.1769 26.1989 22.5089L23.4548 21.6797C22.7151 21.4562 21.8326 21.4562 21.093 21.6797L18.3488 22.5089C16.1379 23.1769 13.7545 21.801 14.9117 20.5246L16.348 18.9404C16.7352 18.5134 16.7352 18.004 16.348 17.5769L14.9117 15.9927Z" fill="#F2F2F7"/>
<rect width="25.5904" height="25.5904" rx="7.48563" transform="matrix(0.866044 -0.499967 0.866044 0.499967 0.111084 17.4221)" fill="#2E3340"/>
<rect x="1.29658" width="24.0933" height="24.0933" rx="6.73706" transform="matrix(0.866044 -0.499967 0.866044 0.499967 0.284768 18.0704)" stroke="url(#paint4_linear_386_4604)" stroke-opacity="0.33" stroke-width="1.49713"/>
<path d="M14.9117 15.0928C13.7545 13.8164 16.1379 12.4405 18.3488 13.1085L21.0929 13.9377C21.8326 14.1612 22.7151 14.1612 23.4548 13.9377L26.1989 13.1085C28.4098 12.4405 30.7932 13.8164 29.636 15.0928L28.1997 16.677C27.8126 17.104 27.8126 17.6134 28.1997 18.0405L29.636 19.6247C30.7933 20.901 28.4098 22.277 26.1989 21.6089L23.4548 20.7797C22.7151 20.5562 21.8326 20.5562 21.093 20.7797L18.3488 21.6089C16.1379 22.277 13.7545 20.901 14.9117 19.6247L16.348 18.0405C16.7352 17.6134 16.7352 17.104 16.348 16.677L14.9117 15.0928Z" fill="#F2F2F7"/>
<rect width="25.5904" height="25.5904" rx="7.48563" transform="matrix(0.866044 -0.499967 0.866044 0.499967 0.111084 16.5221)" fill="#2E3340"/>
<rect x="1.29658" width="24.0933" height="24.0933" rx="6.73706" transform="matrix(0.866044 -0.499967 0.866044 0.499967 0.284768 17.1703)" stroke="url(#paint5_linear_386_4604)" stroke-opacity="0.33" stroke-width="1.49713"/>
<path d="M14.9117 14.1927C13.7545 12.9164 16.1379 11.5404 18.3488 12.2085L21.0929 13.0377C21.8326 13.2612 22.7151 13.2612 23.4548 13.0377L26.1989 12.2085C28.4098 11.5405 30.7932 12.9164 29.636 14.1927L28.1997 15.7769C27.8126 16.204 27.8126 16.7134 28.1997 17.1404L29.636 18.7246C30.7933 20.001 28.4098 21.3769 26.1989 20.7089L23.4548 19.8797C22.7151 19.6562 21.8326 19.6562 21.093 19.8797L18.3488 20.7089C16.1379 21.3769 13.7545 20.001 14.9117 18.7246L16.348 17.1404C16.7352 16.7134 16.7352 16.204 16.348 15.7769L14.9117 14.1927Z" fill="#F2F2F7"/>
<rect width="25.5904" height="25.5904" rx="7.48563" transform="matrix(0.866044 -0.499967 0.866044 0.499967 0.111084 15.6221)" fill="#2E3340"/>
<rect x="1.29658" width="24.0933" height="24.0933" rx="6.73706" transform="matrix(0.866044 -0.499967 0.866044 0.499967 0.284768 16.2703)" stroke="url(#paint6_linear_386_4604)" stroke-opacity="0.33" stroke-width="1.49713"/>
<path d="M14.9117 13.2927C13.7545 12.0164 16.1379 10.6404 18.3488 11.3085L21.0929 12.1377C21.8326 12.3612 22.7151 12.3612 23.4548 12.1377L26.1989 11.3085C28.4098 10.6404 30.7932 12.0164 29.636 13.2927L28.1997 14.8769C27.8126 15.3039 27.8126 15.8134 28.1997 16.2404L29.636 17.8246C30.7933 19.101 28.4098 20.4769 26.1989 19.8088L23.4548 18.9797C22.7151 18.7562 21.8326 18.7562 21.093 18.9797L18.3488 19.8088C16.1379 20.4769 13.7545 19.101 14.9117 17.8246L16.348 16.2404C16.7352 15.8134 16.7352 15.3039 16.348 14.8769L14.9117 13.2927Z" fill="#F2F2F7"/>
<rect width="25.5904" height="25.5904" rx="7.48563" transform="matrix(0.866044 -0.499967 0.866044 0.499967 0.111084 14.7221)" fill="#2E3340"/>
<rect x="1.29658" width="24.0933" height="24.0933" rx="6.73706" transform="matrix(0.866044 -0.499967 0.866044 0.499967 0.284768 15.3704)" stroke="url(#paint7_linear_386_4604)" stroke-opacity="0.33" stroke-width="1.49713"/>
<path d="M14.9117 12.3928C13.7545 11.1164 16.1379 9.74046 18.3488 10.4085L21.0929 11.2377C21.8326 11.4612 22.7151 11.4612 23.4548 11.2377L26.1989 10.4085C28.4098 9.74046 30.7932 11.1164 29.636 12.3928L28.1997 13.977C27.8126 14.404 27.8126 14.9134 28.1997 15.3404L29.636 16.9246C30.7933 18.201 28.4098 19.5769 26.1989 18.9089L23.4548 18.0797C22.7151 17.8562 21.8326 17.8562 21.093 18.0797L18.3488 18.9089C16.1379 19.5769 13.7545 18.201 14.9117 16.9246L16.348 15.3404C16.7352 14.9134 16.7352 14.404 16.348 13.977L14.9117 12.3928Z" fill="#F2F2F7"/>
<rect width="25.5904" height="25.5904" rx="7.48563" transform="matrix(0.866044 -0.499967 0.866044 0.499967 0.111084 13.8221)" fill="#2E3340"/>
<rect x="1.29658" width="24.0933" height="24.0933" rx="6.73706" transform="matrix(0.866044 -0.499967 0.866044 0.499967 0.284768 14.4703)" stroke="url(#paint8_linear_386_4604)" stroke-opacity="0.33" stroke-width="1.49713"/>
<path d="M14.9117 11.4927C13.7545 10.2164 16.1379 8.84044 18.3488 9.5085L21.0929 10.3377C21.8326 10.5612 22.7151 10.5612 23.4548 10.3377L26.1989 9.5085C28.4098 8.84044 30.7932 10.2164 29.636 11.4927L28.1997 13.0769C27.8126 13.504 27.8126 14.0134 28.1997 14.4404L29.636 16.0246C30.7933 17.301 28.4098 18.6769 26.1989 18.0089L23.4548 17.1797C22.7151 16.9562 21.8326 16.9562 21.093 17.1797L18.3488 18.0089C16.1379 18.6769 13.7545 17.301 14.9117 16.0246L16.348 14.4404C16.7352 14.0134 16.7352 13.504 16.348 13.0769L14.9117 11.4927Z" fill="#F2F2F7"/>
<rect width="25.5904" height="25.5904" rx="7.48563" transform="matrix(0.866044 -0.499967 0.866044 0.499967 0.111084 12.9221)" fill="#2E3340"/>
<rect x="1.29658" width="24.0933" height="24.0933" rx="6.73706" transform="matrix(0.866044 -0.499967 0.866044 0.499967 0.284768 13.5704)" stroke="url(#paint9_linear_386_4604)" stroke-opacity="0.33" stroke-width="1.49713"/>
<path d="M14.9117 10.5928C13.7545 9.31641 16.1379 7.94047 18.3488 8.60853L21.0929 9.43772C21.8326 9.66122 22.7151 9.66123 23.4548 9.43772L26.1989 8.60853C28.4098 7.94047 30.7932 9.31641 29.636 10.5928L28.1997 12.177C27.8126 12.604 27.8126 13.1134 28.1997 13.5405L29.636 15.1247C30.7933 16.401 28.4098 17.777 26.1989 17.1089L23.4548 16.2797C22.7151 16.0562 21.8326 16.0562 21.093 16.2797L18.3488 17.1089C16.1379 17.777 13.7545 16.401 14.9117 15.1247L16.348 13.5405C16.7352 13.1134 16.7352 12.604 16.348 12.177L14.9117 10.5928Z" fill="#F2F2F7"/>
<defs>
<linearGradient id="paint0_linear_386_4604" x1="12.7952" y1="-1.27761e-06" x2="26.5222" y2="8.71943" gradientUnits="userSpaceOnUse">
<stop stop-color="#DBEAFE"/>
<stop offset="1" stop-color="#C7DFFF"/>
</linearGradient>
<linearGradient id="paint1_linear_386_4604" x1="12.7952" y1="-1.27761e-06" x2="26.5222" y2="8.71943" gradientUnits="userSpaceOnUse">
<stop stop-color="#DBEAFE"/>
<stop offset="1" stop-color="#C7DFFF"/>
</linearGradient>
<linearGradient id="paint2_linear_386_4604" x1="12.7952" y1="-1.27761e-06" x2="26.5222" y2="8.71943" gradientUnits="userSpaceOnUse">
<stop stop-color="#DBEAFE"/>
<stop offset="1" stop-color="#C7DFFF"/>
</linearGradient>
<linearGradient id="paint3_linear_386_4604" x1="12.7952" y1="-1.27761e-06" x2="26.5222" y2="8.71943" gradientUnits="userSpaceOnUse">
<stop stop-color="#DBEAFE"/>
<stop offset="1" stop-color="#C7DFFF"/>
</linearGradient>
<linearGradient id="paint4_linear_386_4604" x1="12.7952" y1="-1.27761e-06" x2="26.5222" y2="8.71943" gradientUnits="userSpaceOnUse">
<stop stop-color="#DBEAFE"/>
<stop offset="1" stop-color="#C7DFFF"/>
</linearGradient>
<linearGradient id="paint5_linear_386_4604" x1="12.7952" y1="-1.27761e-06" x2="26.5222" y2="8.71943" gradientUnits="userSpaceOnUse">
<stop stop-color="#DBEAFE"/>
<stop offset="1" stop-color="#C7DFFF"/>
</linearGradient>
<linearGradient id="paint6_linear_386_4604" x1="12.7952" y1="-1.27761e-06" x2="26.5222" y2="8.71943" gradientUnits="userSpaceOnUse">
<stop stop-color="#DBEAFE"/>
<stop offset="1" stop-color="#C7DFFF"/>
</linearGradient>
<linearGradient id="paint7_linear_386_4604" x1="12.7952" y1="-1.27761e-06" x2="26.5222" y2="8.71943" gradientUnits="userSpaceOnUse">
<stop stop-color="#DBEAFE"/>
<stop offset="1" stop-color="#C7DFFF"/>
</linearGradient>
<linearGradient id="paint8_linear_386_4604" x1="12.7952" y1="-1.27761e-06" x2="26.5222" y2="8.71943" gradientUnits="userSpaceOnUse">
<stop stop-color="#DBEAFE"/>
<stop offset="1" stop-color="#C7DFFF"/>
</linearGradient>
<linearGradient id="paint9_linear_386_4604" x1="12.7952" y1="-1.27761e-06" x2="26.5222" y2="8.71943" gradientUnits="userSpaceOnUse">
<stop stop-color="#DBEAFE"/>
<stop offset="1" stop-color="#C7DFFF"/>
</linearGradient>
</defs>
</svg>
